{
	"asset":{
		"generator":"Khronos glTF Blender I/O v4.3.47",
		"version":"2.0"
	},
	"extensionsUsed":[
		"KHR_materials_sheen"
	],
	"scene":0,
	"scenes":[
		{
			"name":"Scene",
			"nodes":[
				18
			]
		}
	],
	"nodes":[
		{
			"mesh":0,
			"name":"_B\u00e9zierCurve",
			"translation":[
				0,
				0.0046199350617825985,
				0.013571910560131073
			]
		},
		{
			"mesh":1,
			"name":"_B\u00e9zierCurve.006",
			"translation":[
				0.004857175052165985,
				0.004454005043953657,
				0.008663186803460121
			]
		},
		{
			"mesh":2,
			"name":"B\u00e9zierCurve.001",
			"translation":[
				0.0037265531718730927,
				0.002211397048085928,
				0.009086761623620987
			]
		},
		{
			"mesh":3,
			"name":"B\u00e9zierCurve.004",
			"translation":[
				0.004898018203675747,
				0.004455153830349445,
				0.008688871748745441
			]
		},
		{
			"mesh":4,
			"name":"B\u00e9zierCurve.007",
			"translation":[
				0,
				0.004622478969395161,
				0.013638874515891075
			]
		},
		{
			"mesh":5,
			"name":"Circle.001",
			"translation":[
				0,
				0.004103244282305241,
				-3.0095688998699188e-05
			]
		},
		{
			"mesh":6,
			"name":"Cylinder.001",
			"translation":[
				0,
				0.004622478969395161,
				0.013638874515891075
			]
		},
		{
			"mesh":7,
			"name":"dobj.007",
			"translation":[
				0.008080135099589825,
				0.0009351819753646851,
				0.0059236278757452965
			]
		},
		{
			"mesh":8,
			"name":"dobj.008",
			"translation":[
				0.007209842558950186,
				0.0013241942506283522,
				0.006975788623094559
			]
		},
		{
			"mesh":9,
			"name":"dobj.009",
			"translation":[
				0.006237311288714409,
				0.0019337288103997707,
				0.007820879109203815
			]
		},
		{
			"mesh":10,
			"name":"dobj.010",
			"translation":[
				0.004898018203675747,
				0.004455153830349445,
				0.008688871748745441
			]
		},
		{
			"mesh":11,
			"name":"dobj.011",
			"translation":[
				0,
				0.004622478969395161,
				0.013638874515891075
			]
		},
		{
			"mesh":12,
			"name":"Plane.013",
			"translation":[
				0.008079064078629017,
				0.00033814297057688236,
				0.005713911727070808
			]
		},
		{
			"mesh":13,
			"name":"Plane.016",
			"translation":[
				0.003876549657434225,
				0.0021264199167490005,
				0.00910801813006401
			]
		},
		{
			"mesh":14,
			"name":"Plane.018",
			"translation":[
				0.007897084578871727,
				0.004437516443431377,
				0.007982047274708748
			]
		},
		{
			"mesh":15,
			"name":"Plane.020",
			"translation":[
				0,
				0.004622478969395161,
				0.013638874515891075
			]
		},
		{
			"mesh":16,
			"name":"Torus.002",
			"translation":[
				0.0043915617279708385,
				0.004375001415610313,
				0.007601233199238777
			]
		},
		{
			"mesh":17,
			"name":"Torus.003",
			"translation":[
				0,
				0.004434100352227688,
				0.008679777383804321
			]
		},
		{
			"children":[
				0,
				1,
				2,
				3,
				4,
				5,
				6,
				7,
				8,
				9,
				10,
				11,
				12,
				13,
				14,
				15,
				16,
				17
			],
			"name":"Diamond Ring"
		}
	],
	"materials":[
		{
			"doubleSided":true,
			"extensions":{
				"KHR_materials_sheen":{
					"sheenColorFactor":[
						0.1497144103050232,
						0.10765057057142258,
						0.028401250019669533
					],
					"sheenRoughnessFactor":0.800000011920929
				}
			},
			"name":"Gold.001",
			"pbrMetallicRoughness":{
				"baseColorFactor":[
					1,
					0.7007460594177246,
					0.16043154895305634,
					1
				],
				"roughnessFactor":0.18000000715255737
			}
		},
		{
			"doubleSided":true,
			"extensions":{
				"KHR_materials_sheen":{
					"sheenColorFactor":[
						0.1497144103050232,
						0.10765057057142258,
						0.028401250019669533
					],
					"sheenRoughnessFactor":0.800000011920929
				}
			},
			"name":"White Gold.002",
			"pbrMetallicRoughness":{
				"baseColorFactor":[
					1,
					0.7007460594177246,
					0.16043154895305634,
					1
				],
				"roughnessFactor":0.18000000715255737
			}
		},
		{
			"doubleSided":true,
			"name":"Diamond.001"
		}
	],
	"meshes":[
		{
			"name":"mesh.001",
			"primitives":[
				{
					"attributes":{
						"POSITION":0,
						"NORMAL":1
					},
					"indices":2,
					"material":0
				}
			]
		},
		{
			"name":"mesh",
			"primitives":[
				{
					"attributes":{
						"POSITION":3,
						"NORMAL":4
					},
					"indices":5,
					"material":0
				}
			]
		},
		{
			"name":"B\u00e9zierCurve.001",
			"primitives":[
				{
					"attributes":{
						"POSITION":6,
						"NORMAL":7,
						"TEXCOORD_0":8
					},
					"indices":9,
					"material":0
				}
			]
		},
		{
			"name":"B\u00e9zierCurve.004",
			"primitives":[
				{
					"attributes":{
						"POSITION":10,
						"NORMAL":11,
						"TEXCOORD_0":12
					},
					"indices":13,
					"material":1
				}
			]
		},
		{
			"name":"B\u00e9zierCurve.002",
			"primitives":[
				{
					"attributes":{
						"POSITION":14,
						"NORMAL":15,
						"TEXCOORD_0":16
					},
					"indices":17,
					"material":0
				}
			]
		},
		{
			"name":"mesh.004",
			"primitives":[
				{
					"attributes":{
						"POSITION":18,
						"NORMAL":19
					},
					"indices":20,
					"material":1
				}
			]
		},
		{
			"name":"Cylinder.001",
			"primitives":[
				{
					"attributes":{
						"POSITION":21,
						"NORMAL":22,
						"TEXCOORD_0":23
					},
					"indices":24
				}
			]
		},
		{
			"name":"dmesh.007",
			"primitives":[
				{
					"attributes":{
						"POSITION":25,
						"NORMAL":26
					},
					"indices":27,
					"material":2
				}
			]
		},
		{
			"name":"dmesh.008",
			"primitives":[
				{
					"attributes":{
						"POSITION":28,
						"NORMAL":29
					},
					"indices":30,
					"material":2
				}
			]
		},
		{
			"name":"dmesh.009",
			"primitives":[
				{
					"attributes":{
						"POSITION":31,
						"NORMAL":32
					},
					"indices":33,
					"material":2
				}
			]
		},
		{
			"name":"dmesh.010",
			"primitives":[
				{
					"attributes":{
						"POSITION":34,
						"NORMAL":35
					},
					"indices":36,
					"material":2
				}
			]
		},
		{
			"name":"dmesh.011",
			"primitives":[
				{
					"attributes":{
						"POSITION":37,
						"NORMAL":38
					},
					"indices":39,
					"material":2
				}
			]
		},
		{
			"name":"Plane.019",
			"primitives":[
				{
					"attributes":{
						"POSITION":40,
						"NORMAL":41
					},
					"indices":42,
					"material":1
				}
			]
		},
		{
			"name":"Plane.026",
			"primitives":[
				{
					"attributes":{
						"POSITION":43,
						"NORMAL":44
					},
					"indices":45,
					"material":0
				}
			]
		},
		{
			"name":"Plane.028",
			"primitives":[
				{
					"attributes":{
						"POSITION":46,
						"NORMAL":47
					},
					"indices":48,
					"material":0
				}
			]
		},
		{
			"name":"Plane.030",
			"primitives":[
				{
					"attributes":{
						"POSITION":49,
						"NORMAL":50
					},
					"indices":51,
					"material":0
				}
			]
		},
		{
			"name":"Torus.002",
			"primitives":[
				{
					"attributes":{
						"POSITION":52,
						"NORMAL":53,
						"TEXCOORD_0":54
					},
					"indices":55,
					"material":1
				}
			]
		},
		{
			"name":"Torus.003",
			"primitives":[
				{
					"attributes":{
						"POSITION":56,
						"NORMAL":57,
						"TEXCOORD_0":58
					},
					"indices":59,
					"material":0
				}
			]
		}
	],
	"accessors":[
		{
			"bufferView":0,
			"componentType":5126,
			"count":16842,
			"max":[
				0.004429918713867664,
				0.0043372660875320435,
				0.0009522140608169138
			],
			"min":[
				-0.004429918713867664,
				-0.004354387521743774,
				-0.004705030471086502
			],
			"type":"VEC3"
		},
		{
			"bufferView":1,
			"componentType":5126,
			"count":16842,
			"type":"VEC3"
		},
		{
			"bufferView":2,
			"componentType":5123,
			"count":101124,
			"type":"SCALAR"
		},
		{
			"bufferView":3,
			"componentType":5126,
			"count":5152,
			"max":[
				0.0032429161947220564,
				0.002209311118349433,
				0.0009693949832580984
			],
			"min":[
				-0.012957264669239521,
				-0.0022299315314739943,
				-0.0016078996704891324
			],
			"type":"VEC3"
		},
		{
			"bufferView":4,
			"componentType":5126,
			"count":5152,
			"type":"VEC3"
		},
		{
			"bufferView":5,
			"componentType":5123,
			"count":30912,
			"type":"SCALAR"
		},
		{
			"bufferView":6,
			"componentType":5126,
			"count":4900,
			"max":[
				0.0016556816408410668,
				0.0052759102545678616,
				0.0009649816201999784
			],
			"min":[
				-0.009108785539865494,
				-0.0007516321493312716,
				-0.0011469504097476602
			],
			"type":"VEC3"
		},
		{
			"bufferView":7,
			"componentType":5126,
			"count":4900,
			"type":"VEC3"
		},
		{
			"bufferView":8,
			"componentType":5126,
			"count":4900,
			"type":"VEC2"
		},
		{
			"bufferView":9,
			"componentType":5123,
			"count":27648,
			"type":"SCALAR"
		},
		{
			"bufferView":10,
			"componentType":5126,
			"count":2280,
			"max":[
				0.0031783594749867916,
				0.0022199524100869894,
				0.00038373080315068364
			],
			"min":[
				-0.012974392622709274,
				-0.0022522606886923313,
				-0.00195568660274148
			],
			"type":"VEC3"
		},
		{
			"bufferView":11,
			"componentType":5126,
			"count":2280,
			"type":"VEC3"
		},
		{
			"bufferView":12,
			"componentType":5126,
			"count":2280,
			"type":"VEC2"
		},
		{
			"bufferView":13,
			"componentType":5123,
			"count":13680,
			"type":"SCALAR"
		},
		{
			"bufferView":14,
			"componentType":5126,
			"count":5550,
			"max":[
				0.004395913332700729,
				0.004247831646353006,
				0.0009239102946594357
			],
			"min":[
				-0.004395912401378155,
				-0.004272335674613714,
				-0.002476745517924428
			],
			"type":"VEC3"
		},
		{
			"bufferView":15,
			"componentType":5126,
			"count":5550,
			"type":"VEC3"
		},
		{
			"bufferView":16,
			"componentType":5126,
			"count":5550,
			"type":"VEC2"
		},
		{
			"bufferView":17,
			"componentType":5123,
			"count":31104,
			"type":"SCALAR"
		},
		{
			"bufferView":18,
			"componentType":5126,
			"count":16363,
			"max":[
				0.009899559430778027,
				0.004487742204219103,
				0.00837599579244852
			],
			"min":[
				-0.009902489371597767,
				-0.0041233208030462265,
				-0.009982168674468994
			],
			"type":"VEC3"
		},
		{
			"bufferView":19,
			"componentType":5126,
			"count":16363,
			"type":"VEC3"
		},
		{
			"bufferView":20,
			"componentType":5123,
			"count":98202,
			"type":"SCALAR"
		},
		{
			"bufferView":21,
			"componentType":5126,
			"count":384,
			"max":[
				0.0020962103735655546,
				0.002209239639341831,
				-0.004367726854979992
			],
			"min":[
				-0.0020962099079042673,
				-0.0025568341370671988,
				-0.005079844035208225
			],
			"type":"VEC3"
		},
		{
			"bufferView":22,
			"componentType":5126,
			"count":384,
			"type":"VEC3"
		},
		{
			"bufferView":23,
			"componentType":5126,
			"count":384,
			"type":"VEC2"
		},
		{
			"bufferView":24,
			"componentType":5123,
			"count":1908,
			"type":"SCALAR"
		},
		{
			"bufferView":25,
			"componentType":5126,
			"count":2176,
			"max":[
				0.0003942687180824578,
				0.007395411841571331,
				0.00048257337766699493
			],
			"min":[
				-0.016554532572627068,
				-0.0006184846861287951,
				-0.000785163720138371
			],
			"type":"VEC3"
		},
		{
			"bufferView":26,
			"componentType":5126,
			"count":2176,
			"type":"VEC3"
		},
		{
			"bufferView":27,
			"componentType":5123,
			"count":3624,
			"type":"SCALAR"
		},
		{
			"bufferView":28,
			"componentType":5126,
			"count":2176,
			"max":[
				0.0004116724885534495,
				0.006697640288621187,
				0.0004599375242833048
			],
			"min":[
				-0.014831356704235077,
				-0.0006174237350933254,
				-0.0007384179043583572
			],
			"type":"VEC3"
		},
		{
			"bufferView":29,
			"componentType":5126,
			"count":2176,
			"type":"VEC3"
		},
		{
			"bufferView":30,
			"componentType":5123,
			"count":3624,
			"type":"SCALAR"
		},
		{
			"bufferView":31,
			"componentType":5126,
			"count":2176,
			"max":[
				0.0005476042861118913,
				0.005545461550354958,
				0.00034142754157073796
			],
			"min":[
				-0.013022225350141525,
				-0.0006189412670210004,
				-0.0006887841154821217
			],
			"type":"VEC3"
		},
		{
			"bufferView":32,
			"componentType":5126,
			"count":2176,
			"type":"VEC3"
		},
		{
			"bufferView":33,
			"componentType":5123,
			"count":3624,
			"type":"SCALAR"
		},
		{
			"bufferView":34,
			"componentType":5126,
			"count":1216,
			"max":[
				0.003073429688811302,
				0.001829674351029098,
				0.0013801136519759893
			],
			"min":[
				-0.012869466096162796,
				-0.0018030822975561023,
				-0.0010794908739626408
			],
			"type":"VEC3"
		},
		{
			"bufferView":35,
			"componentType":5126,
			"count":1216,
			"type":"VEC3"
		},
		{
			"bufferView":36,
			"componentType":5123,
			"count":1920,
			"type":"SCALAR"
		},
		{
			"bufferView":37,
			"componentType":5126,
			"count":544,
			"max":[
				0.004036453552544117,
				0.0040325382724404335,
				0.0013615809148177505
			],
			"min":[
				-0.004036453552544117,
				-0.004049478564411402,
				-0.0036808853037655354
			],
			"type":"VEC3"
		},
		{
			"bufferView":38,
			"componentType":5126,
			"count":544,
			"type":"VEC3"
		},
		{
			"bufferView":39,
			"componentType":5123,
			"count":906,
			"type":"SCALAR"
		},
		{
			"bufferView":40,
			"componentType":5126,
			"count":1584,
			"max":[
				0.0006734969210810959,
				0.008355190977454185,
				0.002726272912696004
			],
			"min":[
				-0.016831623390316963,
				-0.0003401549474801868,
				-0.0006782446289435029
			],
			"type":"VEC3"
		},
		{
			"bufferView":41,
			"componentType":5126,
			"count":1584,
			"type":"VEC3"
		},
		{
			"bufferView":42,
			"componentType":5123,
			"count":8640,
			"type":"SCALAR"
		},
		{
			"bufferView":43,
			"componentType":5126,
			"count":6400,
			"max":[
				0.0014347560936585069,
				0.005371712148189545,
				0.0007880555931478739
			],
			"min":[
				-0.009187853895127773,
				-0.0006869579083286226,
				-0.0010304022580385208
			],
			"type":"VEC3"
		},
		{
			"bufferView":44,
			"componentType":5126,
			"count":6400,
			"type":"VEC3"
		},
		{
			"bufferView":45,
			"componentType":5123,
			"count":38352,
			"type":"SCALAR"
		},
		{
			"bufferView":46,
			"componentType":5126,
			"count":440,
			"max":[
				0.00033436514786444604,
				0.0019922901410609484,
				0.002120373072102666
			],
			"min":[
				-0.0161285363137722,
				-0.00196211994625628,
				-0.0004441476776264608
			],
			"type":"VEC3"
		},
		{
			"bufferView":47,
			"componentType":5126,
			"count":440,
			"type":"VEC3"
		},
		{
			"bufferView":48,
			"componentType":5123,
			"count":2400,
			"type":"SCALAR"
		},
		{
			"bufferView":49,
			"componentType":5126,
			"count":9600,
			"max":[
				0.004351695068180561,
				0.004427434876561165,
				0.0008640146697871387
			],
			"min":[
				-0.004351694602519274,
				-0.004447309300303459,
				-0.004479899536818266
			],
			"type":"VEC3"
		},
		{
			"bufferView":50,
			"componentType":5126,
			"count":9600,
			"type":"VEC3"
		},
		{
			"bufferView":51,
			"componentType":5123,
			"count":57528,
			"type":"SCALAR"
		},
		{
			"bufferView":52,
			"componentType":5126,
			"count":1274,
			"max":[
				0.0020424434915184975,
				0.001466325600631535,
				0.0005893238121643662
			],
			"min":[
				-0.010825562290847301,
				-0.0014734822325408459,
				-0.0010128335561603308
			],
			"type":"VEC3"
		},
		{
			"bufferView":53,
			"componentType":5126,
			"count":1274,
			"type":"VEC3"
		},
		{
			"bufferView":54,
			"componentType":5126,
			"count":1274,
			"type":"VEC2"
		},
		{
			"bufferView":55,
			"componentType":5123,
			"count":6912,
			"type":"SCALAR"
		},
		{
			"bufferView":56,
			"componentType":5126,
			"count":637,
			"max":[
				0.002452283399179578,
				0.0024470712523907423,
				0.0004621062253136188
			],
			"min":[
				-0.0024522782769054174,
				-0.0024539555888623,
				-0.0006433332455344498
			],
			"type":"VEC3"
		},
		{
			"bufferView":57,
			"componentType":5126,
			"count":637,
			"type":"VEC3"
		},
		{
			"bufferView":58,
			"componentType":5126,
			"count":637,
			"type":"VEC2"
		},
		{
			"bufferView":59,
			"componentType":5123,
			"count":3456,
			"type":"SCALAR"
		}
	],
	"bufferViews":[
		{
			"buffer":0,
			"byteLength":202104,
			"byteOffset":0,
			"target":34962
		},
		{
			"buffer":0,
			"byteLength":202104,
			"byteOffset":202104,
			"target":34962
		},
		{
			"buffer":0,
			"byteLength":202248,
			"byteOffset":404208,
			"target":34963
		},
		{
			"buffer":0,
			"byteLength":61824,
			"byteOffset":606456,
			"target":34962
		},
		{
			"buffer":0,
			"byteLength":61824,
			"byteOffset":668280,
			"target":34962
		},
		{
			"buffer":0,
			"byteLength":61824,
			"byteOffset":730104,
			"target":34963
		},
		{
			"buffer":0,
			"byteLength":58800,
			"byteOffset":791928,
			"target":34962
		},
		{
			"buffer":0,
			"byteLength":58800,
			"byteOffset":850728,
			"target":34962
		},
		{
			"buffer":0,
			"byteLength":39200,
			"byteOffset":909528,
			"target":34962
		},
		{
			"buffer":0,
			"byteLength":55296,
			"byteOffset":948728,
			"target":34963
		},
		{
			"buffer":0,
			"byteLength":27360,
			"byteOffset":1004024,
			"target":34962
		},
		{
			"buffer":0,
			"byteLength":27360,
			"byteOffset":1031384,
			"target":34962
		},
		{
			"buffer":0,
			"byteLength":18240,
			"byteOffset":1058744,
			"target":34962
		},
		{
			"buffer":0,
			"byteLength":27360,
			"byteOffset":1076984,
			"target":34963
		},
		{
			"buffer":0,
			"byteLength":66600,
			"byteOffset":1104344,
			"target":34962
		},
		{
			"buffer":0,
			"byteLength":66600,
			"byteOffset":1170944,
			"target":34962
		},
		{
			"buffer":0,
			"byteLength":44400,
			"byteOffset":1237544,
			"target":34962
		},
		{
			"buffer":0,
			"byteLength":62208,
			"byteOffset":1281944,
			"target":34963
		},
		{
			"buffer":0,
			"byteLength":196356,
			"byteOffset":1344152,
			"target":34962
		},
		{
			"buffer":0,
			"byteLength":196356,
			"byteOffset":1540508,
			"target":34962
		},
		{
			"buffer":0,
			"byteLength":196404,
			"byteOffset":1736864,
			"target":34963
		},
		{
			"buffer":0,
			"byteLength":4608,
			"byteOffset":1933268,
			"target":34962
		},
		{
			"buffer":0,
			"byteLength":4608,
			"byteOffset":1937876,
			"target":34962
		},
		{
			"buffer":0,
			"byteLength":3072,
			"byteOffset":1942484,
			"target":34962
		},
		{
			"buffer":0,
			"byteLength":3816,
			"byteOffset":1945556,
			"target":34963
		},
		{
			"buffer":0,
			"byteLength":26112,
			"byteOffset":1949372,
			"target":34962
		},
		{
			"buffer":0,
			"byteLength":26112,
			"byteOffset":1975484,
			"target":34962
		},
		{
			"buffer":0,
			"byteLength":7248,
			"byteOffset":2001596,
			"target":34963
		},
		{
			"buffer":0,
			"byteLength":26112,
			"byteOffset":2008844,
			"target":34962
		},
		{
			"buffer":0,
			"byteLength":26112,
			"byteOffset":2034956,
			"target":34962
		},
		{
			"buffer":0,
			"byteLength":7248,
			"byteOffset":2061068,
			"target":34963
		},
		{
			"buffer":0,
			"byteLength":26112,
			"byteOffset":2068316,
			"target":34962
		},
		{
			"buffer":0,
			"byteLength":26112,
			"byteOffset":2094428,
			"target":34962
		},
		{
			"buffer":0,
			"byteLength":7248,
			"byteOffset":2120540,
			"target":34963
		},
		{
			"buffer":0,
			"byteLength":14592,
			"byteOffset":2127788,
			"target":34962
		},
		{
			"buffer":0,
			"byteLength":14592,
			"byteOffset":2142380,
			"target":34962
		},
		{
			"buffer":0,
			"byteLength":3840,
			"byteOffset":2156972,
			"target":34963
		},
		{
			"buffer":0,
			"byteLength":6528,
			"byteOffset":2160812,
			"target":34962
		},
		{
			"buffer":0,
			"byteLength":6528,
			"byteOffset":2167340,
			"target":34962
		},
		{
			"buffer":0,
			"byteLength":1812,
			"byteOffset":2173868,
			"target":34963
		},
		{
			"buffer":0,
			"byteLength":19008,
			"byteOffset":2175680,
			"target":34962
		},
		{
			"buffer":0,
			"byteLength":19008,
			"byteOffset":2194688,
			"target":34962
		},
		{
			"buffer":0,
			"byteLength":17280,
			"byteOffset":2213696,
			"target":34963
		},
		{
			"buffer":0,
			"byteLength":76800,
			"byteOffset":2230976,
			"target":34962
		},
		{
			"buffer":0,
			"byteLength":76800,
			"byteOffset":2307776,
			"target":34962
		},
		{
			"buffer":0,
			"byteLength":76704,
			"byteOffset":2384576,
			"target":34963
		},
		{
			"buffer":0,
			"byteLength":5280,
			"byteOffset":2461280,
			"target":34962
		},
		{
			"buffer":0,
			"byteLength":5280,
			"byteOffset":2466560,
			"target":34962
		},
		{
			"buffer":0,
			"byteLength":4800,
			"byteOffset":2471840,
			"target":34963
		},
		{
			"buffer":0,
			"byteLength":115200,
			"byteOffset":2476640,
			"target":34962
		},
		{
			"buffer":0,
			"byteLength":115200,
			"byteOffset":2591840,
			"target":34962
		},
		{
			"buffer":0,
			"byteLength":115056,
			"byteOffset":2707040,
			"target":34963
		},
		{
			"buffer":0,
			"byteLength":15288,
			"byteOffset":2822096,
			"target":34962
		},
		{
			"buffer":0,
			"byteLength":15288,
			"byteOffset":2837384,
			"target":34962
		},
		{
			"buffer":0,
			"byteLength":10192,
			"byteOffset":2852672,
			"target":34962
		},
		{
			"buffer":0,
			"byteLength":13824,
			"byteOffset":2862864,
			"target":34963
		},
		{
			"buffer":0,
			"byteLength":7644,
			"byteOffset":2876688,
			"target":34962
		},
		{
			"buffer":0,
			"byteLength":7644,
			"byteOffset":2884332,
			"target":34962
		},
		{
			"buffer":0,
			"byteLength":5096,
			"byteOffset":2891976,
			"target":34962
		},
		{
			"buffer":0,
			"byteLength":6912,
			"byteOffset":2897072,
			"target":34963
		}
	],
	"buffers":[
		{
			"byteLength":2903984,
			"uri":"ring.bin"
		}
	]
}
